<?xml version="1.0" encoding="iso-8859-1"?>
<!-- Generator: Adobe Illustrator 16.0.0, SVG Export Plug-In . SVG Version: 6.00 Build 0)  -->
<!DOCTYPE svg PUBLIC "-//W3C//DTD SVG 1.1//EN" "http://www.w3.org/Graphics/SVG/1.1/DTD/svg11.dtd">
<svg version="1.1" id="Layer_1" xmlns="http://www.w3.org/2000/svg" xmlns:xlink="http://www.w3.org/1999/xlink" x="0px" y="0px"
	 width="225px" height="110px" viewBox="-25 -12.5 225 110" style="enable-background:new -25 -12.5 225 110;" xml:space="preserve"
	>
<g>
	<g>
		<path d="M-1.042,70.668c1.308,0,2.343,0.539,3.105,1.617c0.762,1.076,0.918,2.234,0.471,3.475L-2.88,90.764
			c-0.48,1.324-1.299,2.393-2.458,3.203c-1.142,0.812-2.427,1.219-3.85,1.219h-0.099c-1.425,0-2.717-0.424-3.876-1.27
			c-1.158-0.828-1.969-1.908-2.432-3.25l-5.144-14.957c-0.429-1.238-0.264-2.393,0.499-3.449c0.762-1.059,1.796-1.592,3.103-1.592
			h0.473c0.844,0,1.606,0.25,2.286,0.744c0.676,0.498,1.132,1.154,1.365,1.965c2.168,7.303,3.486,12.096,3.951,14.381h0.174
			c0.498-2.199,1.862-7.002,4.097-14.408c0.25-0.793,0.712-1.438,1.391-1.938c0.679-0.494,1.433-0.744,2.262-0.744H-1.042z"/>
		<g>
			<path d="M12.631,67.215c-0.813,0.811-1.798,1.217-2.956,1.217c-1.159,0-2.153-0.406-2.98-1.217
				c-0.812-0.826-1.217-1.818-1.217-2.979c0-1.158,0.405-2.145,1.217-2.955c0.827-0.812,1.821-1.217,2.98-1.217
				c1.158,0,2.143,0.404,2.956,1.217c0.828,0.811,1.24,1.797,1.24,2.955C13.872,65.396,13.459,66.389,12.631,67.215z"/>
			<path d="M9.75,95.184c-1.126,0-2.086-0.398-2.88-1.193c-0.78-0.777-1.169-1.729-1.169-2.855V74.719
				c0-1.111,0.389-2.064,1.169-2.857c0.793-0.797,1.754-1.193,2.88-1.193h0.074c1.109,0,2.062,0.396,2.857,1.193
				c0.794,0.793,1.19,1.746,1.19,2.857v16.416c0,1.127-0.396,2.078-1.19,2.855c-0.795,0.795-1.748,1.195-2.857,1.195H9.75V95.184z"
				/>
		</g>
		<path d="M101.935,91.605c0,0.979-0.347,1.82-1.045,2.535c-0.693,0.695-1.538,1.045-2.531,1.045h-0.074
			c-0.994,0-1.837-0.35-2.534-1.045c-0.697-0.715-1.041-1.557-1.041-2.535V80.529c0-1.207-0.441-2.236-1.319-3.08
			c-0.861-0.846-1.905-1.25-3.13-1.215c-1.158,0.033-2.143,0.494-2.956,1.389c-0.794,0.879-1.19,1.902-1.19,3.08v10.902
			c0,0.979-0.348,1.82-1.042,2.535c-0.713,0.695-1.557,1.045-2.534,1.045h-0.721c-0.994,0-1.837-0.35-2.532-1.045
			c-0.713-0.715-1.068-1.557-1.068-2.535V80.529c0-1.207-0.432-2.236-1.293-3.08c-0.875-0.846-1.919-1.25-3.129-1.215
			c-1.16,0.033-2.144,0.494-2.956,1.389c-0.792,0.879-1.189,1.902-1.189,3.08v10.902c0,0.979-0.358,1.82-1.071,2.535
			c-0.695,0.695-1.537,1.045-2.532,1.045h-0.546c-0.979,0-1.822-0.35-2.533-1.045c-0.695-0.715-1.043-1.557-1.043-2.535V73.027
			c0-0.68,0.242-1.26,0.722-1.738c0.479-0.496,1.065-0.744,1.764-0.744h2.88c0.679,0,1.258,0.248,1.74,0.744
			c0.479,0.48,0.719,1.059,0.719,1.738v0.025c0.198-0.131,0.463-0.361,0.793-0.695c0.449-0.447,0.762-0.744,0.945-0.893
			c0.829-0.73,1.722-1.195,2.682-1.395c4.321-0.895,7.592,0.498,9.812,4.176h0.17c2.567-2.504,4.512-3.893,5.837-4.176
			c3.79-0.793,6.799,0.207,9.018,3.006c1.937,2.418,2.913,5.572,2.929,9.467v9.062H101.935z"/>
		<path d="M108.903,95.184c-1.127,0-2.087-0.398-2.882-1.193c-0.781-0.777-1.165-1.729-1.165-2.855V74.719
			c0-1.111,0.388-2.064,1.165-2.857c0.796-0.797,1.755-1.193,2.882-1.193h0.075c1.11,0,2.062,0.396,2.855,1.193
			c0.795,0.793,1.193,1.746,1.193,2.857v16.416c0,1.127-0.398,2.078-1.193,2.855c-0.794,0.795-1.745,1.195-2.855,1.195h-0.075
			V95.184z"/>
		<path d="M141.304,91.385c0,1.041-0.374,1.936-1.115,2.682c-0.746,0.748-1.648,1.117-2.71,1.117h-0.073
			c-1.045,0-1.937-0.373-2.683-1.117c-0.745-0.746-1.119-1.641-1.119-2.682V82.02c0-2.799-0.778-4.576-2.334-5.342
			c-1.639-0.795-3.335-0.65-5.092,0.424c-1.539,0.943-2.417,1.98-2.632,3.102c-0.034,0.172-0.059,0.367-0.075,0.598
			c0.017-0.014,0.008-0.006-0.025,0.025v10.559c0,1.041-0.373,1.936-1.117,2.682c-0.745,0.748-1.639,1.117-2.683,1.117h-0.123
			c-1.046,0-1.938-0.373-2.684-1.117c-0.745-0.746-1.118-1.641-1.118-2.682V73.053c0-0.695,0.24-1.283,0.722-1.764
			c0.495-0.496,1.092-0.744,1.786-0.744h2.856c0.68,0,1.26,0.248,1.739,0.744c0.48,0.48,0.721,1.059,0.721,1.738v0.025
			c3.129-1.836,5.064-2.828,5.81-2.979c3.794-0.779,6.799,0.221,9.018,3.002c1.919,2.438,2.89,5.592,2.906,9.467L141.304,91.385z"/>
		<path style="fill:#ED1C24;" d="M195.26,89.645c0.846,1.145,0.937,2.352,0.274,3.627c-0.646,1.275-1.68,1.914-3.106,1.914h-0.096
			c-1.293,0-2.279-0.555-2.958-1.666l-6.606-9.338l-1.068,1.02v5.934c0,1.109-0.396,2.064-1.191,2.855
			c-0.778,0.797-1.731,1.195-2.856,1.195h-0.075c-1.126,0-2.08-0.398-2.856-1.195c-0.795-0.791-1.193-1.746-1.193-2.855v-27.77
			c0-1.107,0.398-2.061,1.193-2.854c0.776-0.799,1.73-1.193,2.856-1.193h0.075c1.125,0,2.078,0.395,2.856,1.193
			c0.795,0.793,1.191,1.746,1.191,2.854v11.576c0,0.314,0.158,0.42,0.473,0.322c0.298-0.08,0.572-0.264,0.82-0.545l6.902-7.203
			c0.631-0.713,1.418-1.068,2.361-1.068h0.076c1.322,0,2.259,0.596,2.805,1.789c0.563,1.191,0.423,2.295-0.421,3.301l-6.508,7.477
			L195.26,89.645z"/>
		<path d="M30.188,89.061v-0.012c-1.261-0.125-3.233-0.779-4.158-1.977c-0.417-0.553-0.584-2.811-0.555-5.406v-6.893h2.333
			c0.708,0,1.317-0.254,1.825-0.76c0.522-0.506,0.786-1.123,0.786-1.85v-0.051c0-0.709-0.262-1.316-0.786-1.826
			c-0.506-0.523-1.116-0.781-1.825-0.781h-2.333v-6.014c0-0.783-0.3-1.551-0.791-2.199c-0.475-0.627-1.094-1.039-1.859-1.238
			l-0.09-0.025c-1.119-0.303-2.141-0.104-3.058,0.6c-0.92,0.703-1.379,1.637-1.379,2.805v3.504v2.564v0.076v4.781v0.41v4.777v2.523
			c-0.002,0.064-0.01,0.129-0.01,0.189c0,3.531-0.189,6.67,2.192,9.168c2.131,2.236,4.662,3.447,7.577,3.682
			c0.208,0.047,1.299,0.07,1.518,0.07c1.708,0,3.092-1.387,3.092-3.094C32.668,90.592,31.602,89.344,30.188,89.061z"/>
		<path d="M59.07,81.324c-0.016-0.385-0.049-0.762-0.099-1.133c-0.028-0.246-0.058-0.475-0.094-0.658
			c-0.002-0.012-0.006-0.018-0.008-0.033c-0.008-0.029-0.015-0.059-0.02-0.094c-0.053-0.252-0.109-0.469-0.168-0.658
			c-0.544-2.006-1.628-3.807-3.277-5.383c-2.46-2.35-5.439-3.527-8.927-3.527c-1.914,0-3.666,0.371-5.271,1.08
			c-0.19,0.076-0.376,0.168-0.561,0.254c-0.048,0.027-0.095,0.047-0.142,0.074c-1.211,0.604-2.332,1.426-3.357,2.502
			c-2.334,2.453-3.5,5.416-3.5,8.895c0,3.461,1.166,6.416,3.5,8.869c2.087,2.189,4.57,3.377,7.426,3.605
			c0.202,0.045,1.27,0.068,1.486,0.068c1.674,0,3.03-1.355,3.03-3.031c0-1.469-1.045-2.691-2.429-2.971l0.001-0.008
			c-1.128-0.111-2.822-0.664-3.799-1.643c-1.09-0.998-1.785-2.422-1.785-4.016c0-0.188,0-1.961,0-2.184
			c0-3.021,2.447-5.465,5.466-5.465c3.02,0,5.467,2.447,5.467,5.465c0,0.041,0,0.035,0.002,0.023
			c0.005,0.057-0.002,0.32-0.002,0.324v10.598c0,0.795,0.289,1.482,0.868,2.062c0.564,0.562,1.253,0.846,2.064,0.846h0.05h1.355
			h1.293c0.43,0,0.801-0.16,1.117-0.473c0.217-0.207,0.332-0.465,0.399-0.742V83.012C59.135,82.43,59.106,81.854,59.07,81.324z"/>
		<path d="M169.499,81.324c-0.017-0.385-0.049-0.762-0.1-1.133c-0.027-0.246-0.057-0.475-0.094-0.658
			c-0.003-0.012-0.006-0.018-0.008-0.033c-0.008-0.029-0.015-0.059-0.021-0.094c-0.052-0.252-0.107-0.469-0.168-0.658
			c-0.542-2.006-1.626-3.807-3.275-5.383c-2.46-2.35-5.438-3.527-8.93-3.527c-1.912,0-3.666,0.371-5.267,1.08
			c-0.191,0.076-0.38,0.168-0.563,0.254c-0.047,0.027-0.094,0.047-0.141,0.074c-1.211,0.604-2.333,1.426-3.359,2.502
			c-2.332,2.453-3.499,5.416-3.499,8.895c0,3.461,1.167,6.416,3.499,8.869c2.091,2.189,4.569,3.377,7.427,3.605
			c0.202,0.045,1.271,0.068,1.486,0.068c1.675,0,3.03-1.355,3.03-3.031c0-1.469-1.045-2.691-2.431-2.971l0.001-0.008
			c-1.125-0.111-2.82-0.664-3.798-1.643c-1.089-0.998-1.785-2.422-1.785-4.016c0-0.188,0-1.961,0-2.184
			c0-3.021,2.447-5.465,5.468-5.465c3.019,0,5.466,2.447,5.466,5.465c0,0.041,0.001,0.035,0.001,0.023
			c0.007,0.057-0.001,0.32-0.001,0.324v10.598c0,0.795,0.289,1.482,0.869,2.062c0.562,0.562,1.25,0.846,2.062,0.846h0.049h1.356
			h1.292c0.43,0,0.802-0.16,1.119-0.473c0.219-0.207,0.333-0.465,0.396-0.742V83.012C169.562,82.43,169.535,81.854,169.499,81.324z"
			/>
	</g>
	<path style="fill:#ED1C24;" d="M110.548,14.333c6.754,0,12.261-5.507,12.261-12.261c0-6.751-5.506-12.261-12.261-12.261
		c-6.754,0-12.263,5.51-12.263,12.261c0,2.397,0.705,4.63,1.902,6.522l-7.5,6.103c-5.403-5.575-12.962-9.051-21.307-9.051
		c-15.881,0-28.917,12.571-29.672,28.271h-6.469c-0.649-3.713-3.896-6.55-7.79-6.55c-4.362,0-7.918,3.556-7.918,7.917
		c0,4.363,3.557,7.92,7.918,7.92c3.543,0,6.556-2.35,7.562-5.571h6.759c1.17,15.303,14.015,27.43,29.613,27.43
		c9.751,0,18.432-4.746,23.852-12.043l6.801,5.291c-0.265,0.73-0.415,1.514-0.415,2.334v0.004v0.008
		c0,1.908,0.783,3.646,2.043,4.906c1.263,1.262,3.006,2.047,4.92,2.047h0.002h0.011c1.908,0,3.645-0.785,4.906-2.041
		c1.264-1.264,2.05-3.004,2.05-4.92l0,0v-0.01c-0.003-1.908-0.787-3.646-2.044-4.904c-1.265-1.268-3.004-2.051-4.916-2.053h-0.007
		h-0.004c-1.669,0.002-3.208,0.598-4.407,1.586l-6.911-5.373c2.432-4.305,3.822-9.263,3.822-14.541
		c0-6.688-2.229-12.872-5.982-17.846l7.509-6.112C104.752,13.222,107.522,14.333,110.548,14.333z M104.316,60.648v-0.004
		c0-1.18,0.479-2.244,1.25-3.014c0.772-0.775,1.836-1.25,3.016-1.254h0.004h0.007c1.174,0,2.242,0.479,3.011,1.25
		c0.771,0.77,1.251,1.838,1.254,3.012v0.01l0,0c0,1.178-0.483,2.246-1.248,3.018c-0.774,0.768-1.842,1.25-3.013,1.25h-0.011h-0.002
		c-1.179,0-2.245-0.479-3.014-1.248c-0.772-0.773-1.254-1.842-1.254-3.012V60.648z"/>
</g>
</svg>
