<?xml version="1.0" encoding="iso-8859-1"?>
<!-- Generator: Adobe Illustrator 16.0.0, SVG Export Plug-In . SVG Version: 6.00 Build 0)  -->
<!DOCTYPE svg PUBLIC "-//W3C//DTD SVG 1.1//EN" "http://www.w3.org/Graphics/SVG/1.1/DTD/svg11.dtd">
<svg version="1.1" id="Capa_1" xmlns="http://www.w3.org/2000/svg" xmlns:xlink="http://www.w3.org/1999/xlink" x="0px" y="0px"
	 width="24px" height="24px" viewBox="0 0 24 24" style="enable-background:new 0 0 24 24;" xml:space="preserve">
<g>
	<path style="fill:#FFFFFF;" d="M21.604,10.236H7.436c-0.219,0-0.397,0.179-0.397,0.393v11.41c0,0.22,0.179,0.397,0.397,0.397
		h14.167c0.218,0,0.396-0.178,0.396-0.397v-11.41C22,10.415,21.821,10.236,21.604,10.236z M20.4,20.541
		c0,0.238-0.203,0.442-0.442,0.442H9.081c-0.241,0-0.442-0.204-0.442-0.442v-2.527c0-0.117,0.047-0.229,0.123-0.311l1.215-1.233
		c0.166-0.177,0.43-0.184,0.608-0.022l2.283,2.045l3.944-3.577c0.158-0.14,0.396-0.153,0.564-0.014
		c0.557,0.437,1.801,1.407,2.858,2.234c0.105,0.086,0.166,0.209,0.166,0.347V20.541z"/>
	<path style="fill:#FFFFFF;" d="M12.671,7.619c0.1-0.184,0.321-0.279,0.524-0.204c0.674,0.219,2.176,0.707,3.452,1.124
		c0.126,0.042,0.227,0.14,0.274,0.27l0.014,0.033h1.697l-2.551-7.02c-0.072-0.203-0.3-0.308-0.506-0.235L2.261,6.426
		C2.055,6.501,1.948,6.729,2.025,6.933l3.593,9.889V9.236c0-0.217,0.179-0.395,0.396-0.395h6.012L12.671,7.619z"/>
</g>
</svg>
