<?xml version="1.0" encoding="iso-8859-1"?>
<!-- Generator: Adobe Illustrator 16.0.0, SVG Export Plug-In . SVG Version: 6.00 Build 0)  -->
<!DOCTYPE svg PUBLIC "-//W3C//DTD SVG 1.1//EN" "http://www.w3.org/Graphics/SVG/1.1/DTD/svg11.dtd">
<svg version="1.1" id="Capa_1" xmlns="http://www.w3.org/2000/svg" xmlns:xlink="http://www.w3.org/1999/xlink" x="0px" y="0px"
	 width="24px" height="24px" viewBox="0 0 24 24" style="enable-background:new 0 0 24 24;" xml:space="preserve">
<g>
	<g>
		<path style="fill:#FFFFFF;" d="M21.314,13.062C21.771,12.536,22,11.916,22,11.199c0-0.65-0.236-1.213-0.712-1.686
			C20.812,9.038,20.25,8.799,19.6,8.799h-3.459c0.032-0.116,0.064-0.214,0.098-0.299c0.035-0.083,0.082-0.174,0.14-0.275
			c0.058-0.1,0.101-0.174,0.125-0.224c0.149-0.283,0.265-0.516,0.343-0.7c0.079-0.184,0.158-0.434,0.236-0.749
			c0.08-0.319,0.12-0.633,0.12-0.951c0-0.2-0.003-0.362-0.005-0.489C17.191,4.988,17.17,4.8,17.133,4.551s-0.088-0.459-0.148-0.625
			c-0.06-0.167-0.164-0.354-0.297-0.562c-0.139-0.208-0.308-0.377-0.504-0.507c-0.197-0.129-0.445-0.237-0.748-0.324
			c-0.306-0.089-0.647-0.132-1.033-0.132c-0.215,0-0.402,0.08-0.562,0.238c-0.169,0.166-0.312,0.374-0.427,0.624
			c-0.115,0.249-0.198,0.468-0.244,0.65c-0.045,0.184-0.098,0.437-0.154,0.762c-0.076,0.351-0.133,0.604-0.172,0.757
			c-0.037,0.153-0.107,0.356-0.218,0.605c-0.108,0.25-0.235,0.45-0.386,0.6c-0.275,0.276-0.697,0.774-1.262,1.5
			c-0.41,0.532-0.831,1.036-1.264,1.511c-0.433,0.475-0.751,0.72-0.949,0.738c-0.208,0.016-0.388,0.101-0.538,0.254
			c-0.15,0.155-0.226,0.336-0.226,0.546v8.009c0,0.218,0.079,0.402,0.238,0.558c0.158,0.155,0.346,0.233,0.563,0.244
			c0.291,0.009,0.95,0.192,1.975,0.551c0.641,0.216,1.143,0.382,1.505,0.492c0.362,0.112,0.868,0.233,1.517,0.362
			c0.651,0.13,1.252,0.193,1.801,0.193h0.213h0.947h0.453c1.107-0.019,1.928-0.344,2.463-0.975c0.481-0.578,0.688-1.332,0.611-2.264
			c0.322-0.309,0.548-0.698,0.672-1.174c0.145-0.51,0.145-0.998,0-1.461c0.387-0.51,0.562-1.08,0.539-1.716
			C21.498,13.746,21.438,13.43,21.314,13.062z"/>
		<path style="fill:#FFFFFF;" d="M5.963,10.638C5.805,10.478,5.618,10.4,5.401,10.4H2.8c-0.217,0-0.402,0.08-0.562,0.238
			C2.079,10.796,2,10.984,2,11.201V19.2c0,0.216,0.079,0.405,0.239,0.562C2.399,19.919,2.585,20,2.8,20h2.601
			c0.217,0,0.404-0.081,0.562-0.238c0.16-0.156,0.238-0.347,0.238-0.562v-7.999C6.201,10.983,6.122,10.795,5.963,10.638z"/>
	</g>
</g>
</svg>
