<?xml version="1.0" encoding="iso-8859-1"?>
<!-- Generator: Adobe Illustrator 16.0.0, SVG Export Plug-In . SVG Version: 6.00 Build 0)  -->
<!DOCTYPE svg PUBLIC "-//W3C//DTD SVG 1.1//EN" "http://www.w3.org/Graphics/SVG/1.1/DTD/svg11.dtd">
<svg version="1.1" id="Layer_1" xmlns="http://www.w3.org/2000/svg" xmlns:xlink="http://www.w3.org/1999/xlink" x="0px" y="0px"
	 width="144px" height="144px" viewBox="0 0 144 144" style="enable-background:new 0 0 144 144;" xml:space="preserve">
<path style="fill-rule:evenodd;clip-rule:evenodd;fill:#ED1C24;" d="M124.482,52.839c9.003,0,16.339-7.341,16.339-16.341
	c0-8.999-7.336-16.34-16.339-16.34c-9.001,0-16.341,7.341-16.341,16.34c0,3.193,0.938,6.17,2.534,8.693l-9.995,8.134
	c-7.203-7.43-17.275-12.063-28.397-12.063c-21.167,0-38.541,16.755-39.546,37.677h-8.622c-0.866-4.945-5.191-8.729-10.384-8.729
	c-5.812,0-10.553,4.742-10.553,10.55c0,5.814,4.741,10.556,10.553,10.556c4.725,0,8.739-3.132,10.079-7.425h9.009
	c1.557,20.395,18.678,36.559,39.465,36.559c12.997,0,24.566-6.325,31.792-16.05l9.062,7.051c-0.351,0.974-0.552,2.019-0.552,3.112
	v0.002v0.012c0,2.543,1.042,4.86,2.719,6.537c1.685,1.685,4.008,2.729,6.559,2.729h0.004h0.01c2.547,0,4.86-1.041,6.541-2.716
	c1.685-1.688,2.733-4.008,2.733-6.559v-0.004v-0.009c-0.004-2.544-1.049-4.861-2.727-6.542c-1.682-1.688-4.001-2.729-6.552-2.729
	h-0.006h-0.008c-2.222,0-4.273,0.796-5.873,2.113l-9.212-7.166c3.241-5.732,5.099-12.343,5.099-19.378
	c0-8.913-2.974-17.154-7.978-23.784l10.008-8.146C116.76,51.357,120.449,52.839,124.482,52.839z M89.006,101.593
	c-0.863,1.699-2.242,2.55-4.141,2.55h-0.13c-1.723,0-3.034-0.74-3.939-2.219L71.99,89.479l-1.423,1.357v7.91
	c0,1.477-0.53,2.748-1.588,3.807c-1.039,1.061-2.307,1.59-3.807,1.59h-0.1c-1.501,0-2.77-0.529-3.807-1.59
	c-1.058-1.059-1.59-2.33-1.59-3.807V61.737c0-1.477,0.532-2.749,1.59-3.807c1.037-1.061,2.305-1.59,3.807-1.59h0.1
	c1.5,0,2.768,0.529,3.807,1.59c1.058,1.058,1.588,2.33,1.588,3.807v15.427c0,0.419,0.21,0.562,0.628,0.428
	c0.399-0.106,0.762-0.35,1.093-0.727l9.202-9.599c0.838-0.951,1.889-1.424,3.145-1.424h0.101c1.766,0,3.012,0.795,3.738,2.385
	c0.753,1.586,0.564,3.057-0.562,4.4l-8.674,9.966l9.4,14.168C89.765,98.282,89.885,99.895,89.006,101.593z M116.18,114.564v-0.002
	c0-1.574,0.636-2.993,1.664-4.018c1.029-1.031,2.446-1.668,4.017-1.671h0.008h0.006c1.567,0,2.989,0.64,4.014,1.664
	c1.029,1.029,1.669,2.45,1.672,4.018v0.009v0.004c0,1.567-0.643,2.992-1.665,4.018c-1.031,1.025-2.453,1.665-4.017,1.665h-0.01
	h-0.004c-1.57,0-2.991-0.633-4.018-1.661c-1.028-1.029-1.667-2.454-1.667-4.014V114.564z"/>
</svg>
