<?xml version="1.0" encoding="utf-8"?>
<!-- Generator: Adobe Illustrator 16.0.0, SVG Export Plug-In . SVG Version: 6.00 Build 0)  -->
<!DOCTYPE svg PUBLIC "-//W3C//DTD SVG 1.1//EN" "http://www.w3.org/Graphics/SVG/1.1/DTD/svg11.dtd">
<svg version="1.1" id="Capa_1" xmlns="http://www.w3.org/2000/svg" xmlns:xlink="http://www.w3.org/1999/xlink" x="0px" y="0px"
	 width="24px" height="24px" viewBox="0 0 24 24" enable-background="new 0 0 24 24" xml:space="preserve">
<g>
	<path fill="#FFFFFF" d="M21.564,10.06H5.98c-0.241,0-0.437,0.197-0.437,0.432v12.552c0,0.241,0.196,0.437,0.437,0.437h15.584
		c0.238,0,0.436-0.195,0.436-0.437V10.492C22.002,10.257,21.805,10.06,21.564,10.06z M20.242,21.396
		c0,0.262-0.225,0.484-0.487,0.484H7.79c-0.265,0-0.486-0.224-0.486-0.484v-2.78c0-0.13,0.052-0.251,0.136-0.343l1.336-1.354
		c0.183-0.194,0.473-0.203,0.668-0.024l2.512,2.25l4.339-3.936c0.174-0.154,0.436-0.168,0.62-0.016
		c0.612,0.479,1.979,1.547,3.146,2.457c0.113,0.096,0.183,0.23,0.183,0.382L20.242,21.396L20.242,21.396z"/>
	<path fill="#FFFFFF" d="M11.738,7.181c0.111-0.202,0.354-0.307,0.578-0.224c0.74,0.24,2.393,0.777,3.795,1.236
		c0.141,0.046,0.25,0.154,0.303,0.297l0.018,0.036h1.864L15.49,0.804c-0.079-0.223-0.33-0.338-0.557-0.258L0.288,5.869
		c-0.227,0.083-0.345,0.333-0.26,0.558L3.98,17.305V8.96c0-0.239,0.197-0.435,0.436-0.435h6.613L11.738,7.181z"/>
</g>
</svg>
