<?xml version="1.0" encoding="utf-8"?>
<!-- Generator: Adobe Illustrator 16.0.0, SVG Export Plug-In . SVG Version: 6.00 Build 0)  -->
<!DOCTYPE svg PUBLIC "-//W3C//DTD SVG 1.1//EN" "http://www.w3.org/Graphics/SVG/1.1/DTD/svg11.dtd">
<svg version="1.1" id="Capa_1" xmlns="http://www.w3.org/2000/svg" xmlns:xlink="http://www.w3.org/1999/xlink" x="0px" y="0px"
	 width="24px" height="24px" viewBox="0 0 24 24" enable-background="new 0 0 24 24" xml:space="preserve">
<g>
	<g>
		<path fill="#FFFFFF" d="M5.772,12.695H1.046c-0.292,0-0.537,0.104-0.742,0.306C0.101,13.205,0,13.452,0,13.741v4.049
			c0,0.29,0.101,0.539,0.305,0.741c0.205,0.203,0.45,0.304,0.742,0.304h4.726c0.292,0,0.539-0.101,0.741-0.304
			C6.719,18.329,6.82,18.08,6.82,17.79v-4.049c0-0.289-0.103-0.536-0.306-0.74C6.311,12.799,6.064,12.695,5.772,12.695z"/>
		<path fill="#FFFFFF" d="M5.772,5.165H1.046c-0.292,0-0.537,0.102-0.742,0.305C0.101,5.673,0.001,5.921,0.001,6.209v4.048
			c0,0.29,0.101,0.537,0.305,0.74c0.205,0.203,0.45,0.305,0.742,0.305h4.726c0.292,0,0.539-0.102,0.741-0.305
			c0.205-0.203,0.306-0.45,0.306-0.738v-4.05c0-0.288-0.103-0.537-0.306-0.739C6.311,5.267,6.064,5.165,5.772,5.165z"/>
		<path fill="#FFFFFF" d="M20.954,12.695H9.259c-0.292,0-0.538,0.104-0.74,0.306c-0.205,0.204-0.306,0.451-0.306,0.74v4.049
			c0,0.29,0.103,0.539,0.306,0.741c0.204,0.203,0.448,0.304,0.74,0.304h11.695c0.29,0,0.539-0.101,0.741-0.304
			C21.898,18.329,22,18.08,22,17.79v-4.049c0-0.289-0.102-0.536-0.305-0.74C21.493,12.799,21.244,12.695,20.954,12.695z"/>
		<path fill="#FFFFFF" d="M21.695,5.47c-0.202-0.203-0.451-0.305-0.741-0.305H9.259c-0.292,0-0.538,0.102-0.74,0.305
			C8.314,5.673,8.212,5.921,8.212,6.209v4.05c0,0.288,0.103,0.534,0.306,0.738c0.204,0.203,0.448,0.305,0.74,0.305h11.695
			c0.29,0,0.539-0.102,0.74-0.305C21.898,10.794,22,10.547,22,10.259v-4.05C21.999,5.921,21.898,5.674,21.695,5.47z"/>
	</g>
</g>
</svg>
