<?xml version="1.0" encoding="utf-8"?>
<!-- Generator: Adobe Illustrator 16.0.0, SVG Export Plug-In . SVG Version: 6.00 Build 0)  -->
<!DOCTYPE svg PUBLIC "-//W3C//DTD SVG 1.1//EN" "http://www.w3.org/Graphics/SVG/1.1/DTD/svg11.dtd">
<svg version="1.1" id="Capa_1" xmlns="http://www.w3.org/2000/svg" xmlns:xlink="http://www.w3.org/1999/xlink" x="0px" y="0px"
	 width="24px" height="24px" viewBox="0 0 24 24" enable-background="new 0 0 24 24" xml:space="preserve">
<g>
	<g>
		<path fill="#FFFFFF" d="M21.245,13.17C21.748,12.592,22,11.909,22,11.121c0-0.716-0.262-1.335-0.784-1.855
			c-0.522-0.522-1.142-0.785-1.856-0.785h-3.805c0.035-0.127,0.071-0.235,0.106-0.328c0.039-0.092,0.091-0.191,0.155-0.303
			c0.063-0.11,0.111-0.191,0.138-0.247c0.163-0.311,0.292-0.567,0.378-0.771c0.086-0.201,0.173-0.477,0.259-0.823
			c0.089-0.351,0.132-0.696,0.132-1.046c0-0.221-0.002-0.398-0.005-0.538c-0.008-0.137-0.03-0.344-0.071-0.617
			c-0.041-0.274-0.098-0.504-0.164-0.688c-0.064-0.184-0.18-0.39-0.326-0.618c-0.152-0.229-0.338-0.414-0.555-0.558
			c-0.217-0.142-0.49-0.26-0.822-0.356c-0.336-0.098-0.711-0.146-1.137-0.146c-0.236,0-0.441,0.089-0.617,0.263
			c-0.188,0.183-0.344,0.411-0.471,0.687c-0.125,0.273-0.218,0.515-0.268,0.715c-0.051,0.203-0.107,0.48-0.17,0.838
			c-0.084,0.387-0.146,0.664-0.189,0.833c-0.041,0.168-0.117,0.392-0.238,0.665c-0.119,0.275-0.258,0.494-0.424,0.661
			c-0.303,0.303-0.767,0.851-1.389,1.649c-0.451,0.585-0.914,1.14-1.39,1.662c-0.477,0.522-0.827,0.792-1.044,0.812
			c-0.229,0.018-0.427,0.11-0.592,0.279c-0.165,0.17-0.249,0.369-0.249,0.601v8.811c0,0.239,0.087,0.441,0.262,0.613
			c0.174,0.171,0.381,0.257,0.619,0.269c0.321,0.011,1.045,0.211,2.173,0.604c0.705,0.238,1.257,0.422,1.655,0.543
			c0.399,0.123,0.956,0.257,1.668,0.398c0.717,0.143,1.377,0.213,1.98,0.213h0.234h1.041h0.498c1.22-0.021,2.121-0.379,2.711-1.074
			c0.529-0.637,0.756-1.465,0.672-2.49c0.354-0.34,0.603-0.768,0.738-1.292c0.16-0.56,0.16-1.097,0-1.604
			c0.426-0.562,0.619-1.189,0.594-1.89C21.447,13.923,21.381,13.575,21.245,13.17z"/>
		<path fill="#FFFFFF" d="M4.359,10.503c-0.173-0.176-0.379-0.261-0.618-0.261H0.88c-0.238,0-0.442,0.087-0.618,0.261
			C0.087,10.677,0,10.884,0,11.123v8.8c0,0.236,0.087,0.445,0.263,0.617c0.176,0.173,0.381,0.263,0.617,0.263h2.861
			c0.239,0,0.445-0.09,0.618-0.263c0.176-0.172,0.262-0.382,0.262-0.617v-8.8C4.621,10.883,4.534,10.676,4.359,10.503z"/>
	</g>
</g>
</svg>
