<?xml version="1.0" encoding="iso-8859-1"?>
<!-- Generator: Adobe Illustrator 16.0.0, SVG Export Plug-In . SVG Version: 6.00 Build 0)  -->
<!DOCTYPE svg PUBLIC "-//W3C//DTD SVG 1.1//EN" "http://www.w3.org/Graphics/SVG/1.1/DTD/svg11.dtd">
<svg version="1.1" id="Capa_1" xmlns="http://www.w3.org/2000/svg" xmlns:xlink="http://www.w3.org/1999/xlink" x="0px" y="0px"
	 width="24px" height="24px" viewBox="0 0 24 24" style="enable-background:new 0 0 24 24;" xml:space="preserve">
<g>
	<g>
		<path style="fill:#FFFFFF;" d="M7.247,12.632H2.951c-0.265,0-0.488,0.095-0.674,0.278C2.092,13.095,2,13.32,2,13.583v3.681
			c0,0.264,0.092,0.49,0.277,0.674c0.186,0.185,0.409,0.276,0.674,0.276h4.296c0.266,0,0.49-0.092,0.674-0.276
			c0.186-0.184,0.278-0.41,0.278-0.674v-3.681c0-0.263-0.093-0.488-0.278-0.673C7.737,12.727,7.513,12.632,7.247,12.632z"/>
		<path style="fill:#FFFFFF;" d="M7.247,5.786H2.951c-0.265,0-0.488,0.093-0.674,0.277c-0.185,0.185-0.276,0.41-0.276,0.672v3.68
			c0,0.264,0.092,0.489,0.277,0.673c0.186,0.185,0.409,0.277,0.674,0.277h4.296c0.266,0,0.49-0.092,0.674-0.277
			C8.108,10.904,8.2,10.679,8.2,10.417V6.735c0-0.262-0.093-0.488-0.278-0.672C7.737,5.879,7.513,5.786,7.247,5.786z"/>
		<path style="fill:#FFFFFF;" d="M21.049,12.632H10.417c-0.265,0-0.489,0.095-0.673,0.278c-0.186,0.185-0.278,0.41-0.278,0.673
			v3.681c0,0.264,0.093,0.49,0.278,0.674c0.185,0.185,0.408,0.276,0.673,0.276h10.632c0.264,0,0.49-0.092,0.674-0.276
			C21.907,17.754,22,17.527,22,17.264v-3.681c0-0.263-0.093-0.488-0.277-0.673C21.539,12.727,21.312,12.632,21.049,12.632z"/>
		<path style="fill:#FFFFFF;" d="M21.723,6.063c-0.184-0.184-0.41-0.277-0.674-0.277H10.417c-0.265,0-0.489,0.093-0.673,0.277
			c-0.186,0.185-0.278,0.41-0.278,0.672v3.682c0,0.262,0.093,0.486,0.278,0.671c0.185,0.185,0.408,0.277,0.673,0.277h10.632
			c0.264,0,0.49-0.092,0.674-0.277C21.907,10.904,22,10.679,22,10.417V6.735C21.999,6.473,21.907,6.249,21.723,6.063z"/>
	</g>
</g>
</svg>
