<?xml version="1.0" encoding="utf-8"?>
<!-- Generator: Adobe Illustrator 16.0.0, SVG Export Plug-In . SVG Version: 6.00 Build 0)  -->
<!DOCTYPE svg PUBLIC "-//W3C//DTD SVG 1.1//EN" "http://www.w3.org/Graphics/SVG/1.1/DTD/svg11.dtd">
<svg version="1.1" id="Capa_1" xmlns="http://www.w3.org/2000/svg" xmlns:xlink="http://www.w3.org/1999/xlink" x="0px" y="0px"
	 width="24px" height="24px" viewBox="0 0 24 24" enable-background="new 0 0 24 24" xml:space="preserve">
<g>
	<path fill="#FFFFFF" d="M20.831,7.965l-8.658,6.574c-0.323,0.243-0.746,0.361-1.168,0.354c-0.423,0.008-0.848-0.11-1.17-0.354
		L1.168,7.965C0.529,7.478,0,7.739,0,8.546v9.687C0,19.036,0.663,19.7,1.466,19.7H11h9.532c0.809,0,1.468-0.664,1.468-1.47V8.546
		C22,7.739,21.475,7.478,20.831,7.965z"/>
	<path fill="#FFFFFF" d="M2.495,6.395l6.969,5.052c0.41,0.303,0.976,0.441,1.527,0.414c0.55,0.026,1.114-0.111,1.526-0.414
		l6.969-5.052C20.209,5.861,22.143,4.3,21.221,4.3H10.989H0.76C-0.161,4.3,1.769,5.861,2.495,6.395z"/>
</g>
</svg>
