<?xml version="1.0" encoding="iso-8859-1"?>
<!-- Generator: Adobe Illustrator 16.0.0, SVG Export Plug-In . SVG Version: 6.00 Build 0)  -->
<!DOCTYPE svg PUBLIC "-//W3C//DTD SVG 1.1//EN" "http://www.w3.org/Graphics/SVG/1.1/DTD/svg11.dtd">
<svg version="1.1" id="Capa_1" xmlns="http://www.w3.org/2000/svg" xmlns:xlink="http://www.w3.org/1999/xlink" x="0px" y="0px"
	 width="24px" height="24px" viewBox="0 0 24 24" style="enable-background:new 0 0 24 24;" xml:space="preserve">
<g>
	<path style="fill:#FFFFFF;" d="M20.938,8.332l-7.871,5.977c-0.295,0.221-0.679,0.328-1.063,0.322
		c-0.385,0.006-0.771-0.102-1.064-0.322L3.062,8.332C2.481,7.889,2,8.126,2,8.86v8.805C2,18.396,2.603,19,3.333,19H12h8.666
		C21.4,19,22,18.396,22,17.665V8.86C22,8.126,21.521,7.889,20.938,8.332z"/>
	<path style="fill:#FFFFFF;" d="M4.268,6.905l6.335,4.592c0.373,0.276,0.887,0.401,1.388,0.376c0.5,0.024,1.014-0.101,1.388-0.376
		l6.336-4.592C20.372,6.419,22.129,5,21.292,5H11.99H2.691C1.854,5,3.608,6.419,4.268,6.905z"/>
</g>
</svg>
